/* XPM */
static char *icon_save[] = {
/* columns rows colors chars-per-pixel */
"16 16 156 2",
"   c #3160A6",
".  c #3160A7",
"X  c #3160A8",
"o  c #3161A8",
"O  c #3261A8",
"+  c #3261A9",
"@  c #3261AA",
"#  c #3262AA",
"$  c #3262AB",
"%  c #3263AC",
"&  c #3363AD",
"*  c #3364AE",
"=  c #3364AF",
"-  c #3365B0",
";  c #3465B1",
":  c #3466B2",
">  c #3466B3",
",  c #3467B4",
"<  c #3568B5",
"1  c #3569B5",
"2  c #3568B6",
"3  c #3568B7",
"4  c #3569B6",
"5  c #3569B7",
"6  c #3569B8",
"7  c #3569B9",
"8  c #356ABA",
"9  c #366ABA",
"0  c #366ABB",
"q  c #366BBB",
"w  c #376BBA",
"e  c #366BBC",
"r  c #386BBB",
"t  c #386CBB",
"y  c #3A6DBB",
"u  c #396CBC",
"i  c #3B6EBD",
"p  c #3E70BB",
"a  c #5E89C9",
"s  c #648CC8",
"d  c #658CC8",
"f  c #658DC9",
"g  c #658DCA",
"h  c #668DC9",
"j  c #678EC9",
"k  c #6990CA",
"l  c #6890CD",
"z  c #6A93CF",
"x  c #6C92CB",
"c  c #6D92CB",
"v  c #6D96D3",
"b  c #7998C7",
"n  c #7C9AC8",
"m  c #7C9BC9",
"M  c #7099D6",
"N  c #7199D8",
"B  c #729BD9",
"V  c #739BD9",
"C  c #739BDA",
"Z  c #729CDB",
"A  c #749CDA",
"S  c #749DDC",
"D  c #749EDD",
"F  c #759EDE",
"G  c #769FDD",
"H  c #769FDE",
"J  c #779FDE",
"K  c #77A0DE",
"L  c #77A0DF",
"P  c #78A1E0",
"I  c #78A2E0",
"U  c #79A2E1",
"Y  c #7AA2E0",
"T  c #7AA2E1",
"R  c #7AA3E1",
"E  c #7BA3E1",
"W  c #7AA2E2",
"Q  c #7AA3E2",
"!  c #7AA3E3",
"~  c #7BA3E2",
"^  c #7AA4E3",
"/  c #7BA4E2",
"(  c #7BA4E3",
")  c #7DA6E6",
"_  c #7DA7E7",
"`  c #7EA8E7",
"'  c #7EA8E8",
"]  c #88C062",
"[  c #819ECC",
"{  c #84A3CE",
"}  c #8AA7D2",
"|  c #8EABD5",
" . c #95B0DA",
".. c #9AB5DD",
"X. c #80AAE9",
"o. c #9FBAE1",
"O. c #A4BEE4",
"+. c #A9C2E7",
"@. c #ADC5EA",
"#. c #ADC6EB",
"$. c #B3CAED",
"%. c #B6CCEE",
"&. c #B8CEEF",
"*. c #BAD0EE",
"=. c #BBD0EF",
"-. c #BDD0EC",
";. c #BED2F0",
":. c #C2DCBF",
">. c #C3D5EF",
",. c #C2D5F2",
"<. c #C5D8F2",
"1. c #C7D9F4",
"2. c #C9DCF4",
"3. c #CCDDF5",
"4. c #D0DFF6",
"5. c #D1DFF6",
"6. c #D1E0F6",
"7. c #D1E0F7",
"8. c #D8E5F6",
"9. c #D9E5F7",
"0. c #DBE6F7",
"q. c #DBE7F7",
"w. c #DBE7F8",
"e. c #DDE8F8",
"r. c #DFE9F8",
"t. c #DFE9F9",
"y. c #E1ECF9",
"u. c #E2ECF9",
"i. c #E3EDF9",
"p. c #E5EDFA",
"a. c #E8F0FA",
"s. c #E9F0FA",
"d. c #E9F1FA",
"f. c #EAF0FA",
"g. c #EAF1FB",
"h. c #EBF1FB",
"j. c #EDF2FB",
"k. c #EEF3FB",
"l. c #EEF4FB",
"z. c #EEF4FC",
"x. c #EFF4FC",
"c. c #F0F5FC",
"v. c #F1F6FC",
"b. c #F2F6FC",
"n. c #F3F7FD",
"m. c #F3F8FD",
"M. c #F6F9FD",
"N. c #F6FAFD",
"B. c #F7FAFD",
"V. c #F6FAFE",
"C. c #F7FAFE",
"Z. c #F7FBFE",
"A. c #F8FAFE",
"S. c #F8FBFE",
"D. c gray100",
"F. c None",
/* pixels */
"e e e e e q q q q u y y y p < F.",
"e 6.6.S.N.V.v.a.j.V.V.j.e.&.a < ",
"e 4.X.V.N.d l.a.v.S.c.u.e.-.-.p ",
"e 4.' v.v.d a.l.S.V.s.e.w.L >.1 ",
"e 3.' a.a.d a.V.S.v.u.9.9.L +.1 ",
"e 2._ y.y.i.z.S.v.i.9.9.8.L O.1 ",
"q 1.) d d d c c k d s s d A o.> ",
"q <.~ ! ( ( ~ ~ L L L S Z S ..; ",
"e <.( ( ~ ~ ~ L L L S S A N  .; ",
"e ;.L ( ~ ~ ~ L L L S A N N | & ",
"q &.~ S.S.S.S.S.S.S.S.S.S.v } $ ",
"u &.L S.] ] ] ] ] ] ] ] S.k { $ ",
"y $.E S.:.:.:.:.:.:.:.:.V.k [ $ ",
"q $.L S.] ] ] ] ] ] ] ] V.d m X ",
"e #.@.S.S.S.S.S.S.S.S.S.S.b b X ",
"u , q , 1 1 ; = & $ $ $ X     $ "
};
