/* XPM */
static char *icon_open[] = {
/* columns rows colors chars-per-pixel */
"16 16 174 2",
"   c #4474C5",
".  c #537FCA",
"X  c #5383CA",
"o  c #5284CA",
"O  c #5480CA",
"+  c #5583CC",
"@  c #5681CE",
"#  c #5585CB",
"$  c #5686CC",
"%  c #5787CC",
"&  c #5887CC",
"*  c #5F96CC",
"=  c #6D9ED0",
"-  c #6CA0D1",
";  c #D8862C",
":  c #D8872D",
">  c #D8882D",
",  c #D98E33",
"<  c #DA9435",
"1  c #DA9A36",
"2  c #DAA136",
"3  c #DAA637",
"4  c #DAAB35",
"5  c #DAAA36",
"6  c #DAAF35",
"7  c #DAB336",
"8  c #D9B434",
"9  c #E0A54D",
"0  c #E2AA55",
"q  c #E9BC64",
"w  c #E7BC70",
"e  c #E1C25E",
"r  c #E2C35F",
"t  c #F2D140",
"y  c #F3D44D",
"u  c #F3D54F",
"i  c #F4D85B",
"p  c #F4D95E",
"a  c #E2C360",
"s  c #F5DB67",
"d  c #F6DC6C",
"f  c #F2D370",
"g  c #F3D574",
"h  c #F3D77A",
"j  c #F6DE71",
"k  c #F6DE77",
"l  c #F7DF7A",
"z  c #F7E17F",
"x  c #88BBEA",
"c  c #91BAE4",
"v  c #91BBE4",
"b  c #92BBE4",
"n  c #93BBE4",
"m  c #96BEE5",
"M  c #96BFE6",
"N  c #93C1EC",
"B  c #9DC3EA",
"V  c #AFD1F3",
"C  c #B4D3F5",
"Z  c #BBD7F6",
"A  c #BCD9F7",
"S  c #C6C186",
"D  c #CFC88C",
"F  c #D7CE90",
"G  c #DCD293",
"H  c #EBC991",
"J  c #E3D793",
"K  c #E9DB93",
"L  c #F4D980",
"P  c #F4DA85",
"I  c #F5DC89",
"U  c #F5DE8E",
"Y  c #F4DC93",
"T  c #F5DE91",
"R  c #F6DF92",
"E  c #F5DE94",
"W  c #F7E182",
"Q  c #F7E286",
"!  c #F8E389",
"~  c #F8E38B",
"^  c #F8E48E",
"/  c #F8E48F",
"(  c #F6E095",
")  c #F6E198",
"_  c #F5E09F",
"`  c #F4E49A",
"'  c #F6E69B",
"]  c #F7E69A",
"[  c #F5E59D",
"{  c #F4E59F",
"}  c #F5E59E",
"|  c #F8E590",
" . c #F8E591",
".. c #F8E592",
"X. c #F8E593",
"o. c #F8E594",
"O. c #F8E694",
"+. c #F6E1AC",
"@. c #D6D8C9",
"#. c #C2DCF9",
"$. c #C2DCFA",
"%. c #C4DDF9",
"&. c #C4DEF9",
"*. c #C5DEFC",
"=. c #C8DFFA",
"-. c #C4E2FA",
";. c #C7E0FB",
":. c #CAE0FA",
">. c #CBE3FB",
",. c #CBE2FF",
"<. c #CCE2FB",
"1. c #CDE2FC",
"2. c #CDE3FC",
"3. c #D0E4FC",
"4. c #D1E4FC",
"5. c #D1E5FD",
"6. c #D2E5FC",
"7. c #D2E5FF",
"8. c #D4E6FD",
"9. c #D5E7FE",
"0. c #D5E7FF",
"q. c #D6E7FD",
"w. c #D7E7FF",
"e. c #DDE9F5",
"r. c #D9E9FF",
"t. c #DBEAFF",
"y. c #F8EAC2",
"u. c #FBF2CA",
"i. c #FBF2CC",
"p. c #F8F3DA",
"a. c #FAF0DC",
"s. c #E3EFFA",
"d. c #E4EFFA",
"f. c #E8F2EF",
"g. c #E7F2FA",
"h. c #E7F2FD",
"j. c #EBF3FA",
"k. c #E8F2FC",
"l. c #E9F3FD",
"z. c #E8F3FE",
"x. c #EAF3FD",
"c. c #EFF3FA",
"v. c #EFF6FB",
"b. c #EDF5FE",
"n. c #EEF4FD",
"m. c #FBF6E8",
"M. c #FEFAEF",
"N. c #F0F6FE",
"B. c #F0F7FF",
"V. c #F1F7FE",
"C. c #F1F7FF",
"Z. c #F2F7FF",
"A. c #F3F8FB",
"S. c #F3F9FE",
"D. c #FDFAF1",
"F. c #FDFAF2",
"G. c #FEFCF3",
"H. c #FFFCF5",
"J. c #FEFCF6",
"K. c #FEFCF7",
"L. c #FFFDF6",
"P. c #FBFCFE",
"I. c #FFFDF8",
"U. c #FCFDFE",
"Y. c #FCFDFF",
"T. c #FDFEFD",
"R. c #FDFEFE",
"E. c #FEFEFD",
"W. c #FFFEFD",
"Q. c #FEFFFF",
"!. c #FFFEFE",
"~. c #FFFFFE",
"^. c gray100",
"/. c None",
/* pixels */
"/./././././.B m v v - = * /././.",
"/./././././.m ^.x.x.x.s.g.x /./.",
"/./././././.v b.*.;.$.C S.-.N /.",
"/./././././.v V.1.1.=.A e.j.A.o ",
"/./././././.v V.6.6.<.#.Z V g.$ ",
"8 e a e a e v V.w.w.5.=.#.A x.$ ",
"7 ^.^.^.^.^.c V.w.8.8.5.,.$.h.$ ",
"6 K.~ T _ +.o V.r.r.r.w.5.,.V.# ",
"5 F.E T q < < < < < < < < < v.X ",
"5 m.w 0 9 H j.^.P.^.P.P.^.< f.@ ",
"3 ^.I.K.K.D.` ' ' ' [ { p.< b.o ",
"2 K.O.O.O.~ K J G F D S @.<   . ",
"1 F.X.X.| ! Q W k d p u i.< /./.",
"< M.O.~ ! W l j s i u t u.< /./.",
", a.) ( ( ~ I P L h g f y.< /./.",
": : : : : : : : : : ; ; ; ; /./."
};
