/* XPM */
static char *icon_new[] = {
/* columns rows colors chars-per-pixel */
"16 16 77 1",
"  c #5171A9",
". c #5172A9",
"X c #5373A9",
"o c #5475AB",
"O c #5475AC",
"+ c #5676AD",
"@ c #5779AE",
"# c #587AB0",
"$ c #587BB1",
"% c #5A7CB2",
"& c #5C7EB5",
"* c #5E81B7",
"= c #5F83B9",
"- c #6085BA",
"; c #6185BB",
": c #6387BD",
"> c #6488BE",
", c #668BC0",
"< c #688EC3",
"1 c #6F90C1",
"2 c #6C92C8",
"3 c #6C94C9",
"4 c #6F96CB",
"5 c #6F97CC",
"6 c #7099CE",
"7 c #729ACF",
"8 c #7A9AC4",
"9 c #739CD1",
"0 c #739DD2",
"q c #759ED4",
"w c #76A0D5",
"e c #79A2D8",
"r c #79A3D9",
"t c #7AA4DA",
"y c #7AA4DB",
"u c #7AA6DC",
"i c #7BA7DC",
"p c #85ACDD",
"a c #86ADDD",
"s c #8DB1DD",
"d c #90B3DE",
"f c #92B9E8",
"g c #DEE7F2",
"h c #E4EAF3",
"j c #E7EBF5",
"k c #E8ECF6",
"l c #EAEFF6",
"z c #EAF0F7",
"x c #EBF2F7",
"c c #EDF3F7",
"v c #ECF2F8",
"b c #EFF3FA",
"n c #EEF4F8",
"m c #F0F5F9",
"M c #F1F6FB",
"N c #F2F5FB",
"B c #F3F7FB",
"V c #F4F7FB",
"C c #F4F8FB",
"Z c #F5F9FB",
"A c #F7F9FB",
"S c #F6FAFB",
"D c #F6FBFB",
"F c #F7FAFB",
"G c #F7FCFC",
"H c #F9FBFB",
"J c #F8FBFC",
"K c #F9FBFC",
"L c #F8FDFD",
"P c #F9FCFC",
"I c #FAFCFC",
"U c #FAFDFD",
"Y c #FBFDFD",
"T c #FCFEFE",
"R c #FDFFFF",
"E c gray100",
"W c None",
/* pixels */
"Wsuteq077448WWWW",
"pfffffffffff>WWW",
"iuuiuiiuuuiu,WWW",
"tEEEEEEEEEEE:WWW",
"tEDEdutew977448W",
"eEYpfffffffffff>",
"wEYuuuiuiitiiii<",
"9EEtEEEEEEEEEEE>",
"5EEeEJDBncxjhgE=",
"2EEeEJJDVMcxxjE*",
"W<:qEEYGVCCCnvE&",
"WWW9EYEYYYGVDVE#",
"WWW5EEYYYYYYYDEO",
"WWW2EEEEEEEEEEE ",
"WWWW<>==$$@+o. W",
"WWWWWWWWWWWWWWWW"
};
