/* XPM */
static char *icon_binary[] = {
/* columns rows colors chars-per-pixel */
"16 16 172 2",
"   c #C38423",
".  c #C48524",
"X  c #C48625",
"o  c #C58726",
"O  c #C58928",
"+  c #C68A28",
"@  c #C78D2B",
"#  c #C88E2C",
"$  c #C88F2D",
"%  c #C9922F",
"&  c #CB9532",
"*  c #C8943B",
"=  c #CE9D39",
"-  c #DE9F32",
";  c #D1A43F",
":  c #E2AA37",
">  c #E2A938",
",  c #E3AB3A",
"<  c #E6B53A",
"1  c #E6B43D",
"2  c #E6B53F",
"3  c #E9B53D",
"4  c #ECB638",
"5  c #F0BD3B",
"6  c #C88E40",
"7  c #CA904A",
"8  c #D09753",
"9  c #D3A842",
"0  c #D4AA44",
"q  c #D5AC45",
"w  c #D5AD47",
"e  c #D5A651",
"r  c #D7A45F",
"t  c #DAAD50",
"y  c #D6B049",
"u  c #D7B04A",
"i  c #D7B24B",
"p  c #D8B24B",
"a  c #D8B44C",
"s  c #D8B44D",
"d  c #D9B54D",
"f  c #D9B54E",
"g  c #DBB156",
"h  c #DBB262",
"j  c #DDB969",
"k  c #D6B870",
"l  c #DCBD77",
"z  c #E1A740",
"x  c #E5AF56",
"c  c #E4B145",
"v  c #E6B147",
"b  c #E6B542",
"n  c #E4B14C",
"m  c #E7BA41",
"M  c #E9B44C",
"N  c #E9BD40",
"B  c #E8BE43",
"V  c #E9BD45",
"C  c #E8BB4F",
"Z  c #E8BF48",
"A  c #F5BD40",
"S  c #E2B76F",
"D  c #E6B66B",
"F  c #E5BF6F",
"G  c #E4B374",
"H  c #EAC146",
"J  c #EAC443",
"K  c #ECC547",
"L  c #EBC648",
"P  c #EFC748",
"I  c #F9C248",
"U  c #F9C448",
"Y  c #F1C156",
"T  c #E1C072",
"R  c #E0C07D",
"E  c #E0C67E",
"W  c #F5C969",
"Q  c #F5CF7F",
"!  c #F5D078",
"~  c #F5D07F",
"^  c #FFD577",
"/  c #FED678",
"(  c #FED97C",
")  c #DBC389",
"_  c #DEC995",
"`  c #E5C482",
"'  c #E7CC88",
"]  c #EBC182",
"[  c #ECC583",
"{  c #EEC483",
"}  c #EDC687",
"|  c #EBCC84",
" . c #ECCA84",
".. c #EBCD8F",
"X. c #EECA88",
"o. c #EFCA8A",
"O. c #E5CF92",
"+. c #EDD292",
"@. c #EAD59C",
"#. c #F1CF86",
"$. c #F0CE8A",
"%. c #F1D28B",
"&. c #F0D08C",
"*. c #F7D589",
"=. c #F7D78B",
"-. c #FBDC84",
";. c #FBDA8D",
":. c #FFDC8C",
">. c #F1D590",
",. c #F2D695",
"<. c #F5D790",
"1. c #FBDB92",
"2. c #FEDF95",
"3. c #F8DB9D",
"4. c #EDD9A5",
"5. c #EDDEBE",
"6. c #F2DDAF",
"7. c #FEE094",
"8. c #FEE194",
"9. c #FEE196",
"0. c #FFE19B",
"q. c #FFE39F",
"w. c #FFE4A4",
"e. c #FFE4A5",
"r. c #FFE5A5",
"t. c #F9E1AA",
"y. c #FAE3AA",
"u. c #FFE7AD",
"i. c #FFE8A8",
"p. c #FFE8AB",
"a. c #F7E4B2",
"s. c #F6E5BF",
"d. c #FAE4B0",
"f. c #FFEAB3",
"g. c #FFE9B6",
"h. c #FFEBB7",
"j. c #FFEAB9",
"k. c #FFEBBA",
"l. c #FFEBBD",
"z. c #FFEDBE",
"x. c #FFEEC1",
"c. c #FFEFC1",
"v. c #FCEEC7",
"b. c #FFEFC4",
"n. c #F9EBCD",
"m. c #FBEDCB",
"M. c #FAECCE",
"N. c #FFEFC8",
"B. c #F5EBD2",
"V. c #F7EED1",
"C. c #FFF0C9",
"Z. c #FFF2CC",
"A. c #FFF2CE",
"S. c #FFF4CC",
"D. c #FFF3D4",
"F. c #FFF3D5",
"G. c #FFF4D7",
"H. c #FFF5D9",
"J. c #FFF4DA",
"K. c #FFF6DB",
"L. c #FFF6DD",
"P. c #FCF6E2",
"I. c #FDF6E2",
"U. c #FEF6E3",
"Y. c #FDF8E2",
"T. c #FEF8E1",
"R. c #FCF8E6",
"E. c #FEFBE7",
"W. c #FFFEF0",
"Q. c #FFFFF6",
"!. c gray100",
"~. c None",
/* pixels */
"~.~.~.~.~.~.~.i i ~.~.~.~.~.~.~.",
"~.~.~.~.~.f i @.| 0 ~.~.~.~.~.~.",
"~.~.~.~.a O.R.T.6.a.l ; ~.~.~.~.",
"~.~.f E V.Q.W.m.t =.y.,.h = ~.~.",
"~.f 4.B.5._ ) k j <.Q 3.y. .e ~.",
"f T.n.+.| F g * M.J.j.2.^ w.-.% ",
"i P.F.d.X.~ ! n d.g.0./ A 3 %.% ",
"i L.J.F.z.*.W M ;.:.U 4 Z C &.@ ",
"w P.J.S.N.k.1.Y I 5 L B b n  .+ ",
"0 L.D.C.z.g.u.( P J B 1 , z { o ",
"0 E.L.c.h.i.w.9.L N 1 > - D { X ",
"~.l s.L.c.w.0.8.H < : x { G 7 ~.",
"~.~.= l v.Z.i.8.N c o.] 8   ~.~.",
"~.~.~.~.& ` S.v.%.o.r X X ~.~.~.",
"~.~.~.~.~.~.$ ..S 6 X ~.~.~.~.~.",
"~.~.~.~.~.~.~.O X ~.~.~.~.~.~.~."
};
