/* XPM */
static char *icon_rename[] = {
/* columns rows colors chars-per-pixel */
"16 16 29 1",
"  c #626262",
". c gray42",
"X c #6C6C6C",
"o c gray43",
"O c gray46",
"+ c #6B8FC3",
"@ c #6C8FC3",
"# c #6D90C3",
"$ c #6D91C3",
"% c #6E91C3",
"& c #6F92C2",
"* c #6C90C4",
"= c #7193C1",
"- c #7093C2",
"; c #739BD6",
": c #749BD6",
"> c #769DD6",
", c #7298D9",
"< c #7299D8",
"1 c #739BD9",
"2 c #799FD7",
"3 c #7BA1D6",
"4 c #8E8E8E",
"5 c #959595",
"6 c gray79",
"7 c gray91",
"8 c gray99",
"9 c gray100",
"0 c None",
/* pixels */
"0000000000000000",
"0000000000000000",
"0000000000000000",
"0000000000000000",
"66666666.4O66666",
"698888888.888887",
"68+++##&8 888887",
"68+,<<2#8 888887",
"68*;>>3=8 888887",
"68*###=&8 888887",
"688888888 888887",
"77777777 5o77777",
"0000000000000000",
"0000000000000000",
"0000000000000000",
"0000000000000000"
};
