/* XPM */
static char *icon_font[] = {
/* columns rows colors chars-per-pixel */
"16 16 65 1",
"  c #2748C3",
". c #2B4DC3",
"X c #2B50C4",
"o c #3155C6",
"O c #3361CC",
"+ c #3763CC",
"@ c #3466CD",
"# c #3766CC",
"$ c #3767CD",
"% c #3569CF",
"& c #3968CE",
"* c #3A6ACF",
"= c #3A6DCF",
"- c #3A6CD1",
"; c #3A73D3",
": c #3E77D3",
"> c #4271D0",
", c #427ED6",
"< c #437ED6",
"1 c #447AD5",
"2 c #457AD5",
"3 c #4D7CD5",
"4 c #517ED6",
"5 c #4084D8",
"6 c #4184D8",
"7 c #4389D9",
"8 c #438BD8",
"9 c #4788DA",
"0 c #4A83D8",
"q c #498EDA",
"w c #5083D7",
"e c #5386D8",
"r c #5686D9",
"t c #528BDA",
"y c #5A89DA",
"u c #588CDA",
"i c #5D8FDA",
"p c #5696DD",
"a c #5E93DB",
"s c #5E96DC",
"d c #608FDB",
"f c #6090DB",
"g c #639BDE",
"h c #6B96DC",
"j c #689DDF",
"k c #6A9FDF",
"l c #77A0DF",
"z c #6CA7E2",
"x c #71A4E1",
"c c #71A4E2",
"v c #70A6E2",
"b c #75A4E1",
"n c #73A8E1",
"m c #73A9E3",
"M c #79A6E1",
"N c #79A7E2",
"B c #7AA6E1",
"V c #7CA9E2",
"C c #81A8E3",
"Z c #82AEE4",
"A c #8BB7E7",
"S c #8FBAE7",
"D c #91BCE9",
"F c gray100",
"G c None",
/* pixels */
"GGGGGGGGGGGGGGGG",
"GGGGGGGGGGGGGGGG",
"GGGGGGG8q855;GGG",
"GGGGGGGzDSAc,GGG",
"GGGGGGGpmbv:GGGG",
"GGGGGGGv9,Z*GGGG",
"GGGGGGgsG%V-GGGG",
"GGGGGGk@GOM1GGGG",
"GGGGGktGG@MrGGGG",
"GGGGaN0&&1CrGGGG",
"GGGGN@GGG+lyGGGG",
"GGGluGGGG hdGGGG",
"GGiawXGG.>43oGGG",
"GGGGGGGGGGGGGGGG",
"GGGGGGGGGGGGGGGG",
"GGGGGGGGGGGGGGGG"
};
