/* XPM */
static char *icon_close[] = {
/* columns rows colors chars-per-pixel */
"16 16 90 1",
"  c #E42224",
". c #E62A2C",
"X c #E92D2F",
"o c #EA2F31",
"O c #E93235",
"+ c #EB3436",
"@ c #EC3C3E",
"# c #EE3D3F",
"$ c #ED3E40",
"% c #ED3F41",
"& c #F13F41",
"* c #EE4042",
"= c #EE4143",
"- c #EF4346",
"; c #EF4447",
": c #EF4548",
"> c #F24547",
", c #F04648",
"< c #F04649",
"1 c #F24C4F",
"2 c #F4484A",
"3 c #F64A4C",
"4 c #F44D50",
"5 c #F54E50",
"6 c #F75557",
"7 c #F55658",
"8 c #F65558",
"9 c #F65659",
"0 c #F6585A",
"q c #F6585B",
"w c #F6595B",
"e c #F65A5C",
"r c #F65A5D",
"t c #F75B5D",
"y c #F75C5E",
"u c #FF5457",
"i c #FF5659",
"p c #FF585B",
"a c #FF5B5E",
"s c #F75D60",
"d c #F75F61",
"f c #F85E61",
"g c #F85F62",
"h c #FA6163",
"j c #F86164",
"k c #F86264",
"l c #F96366",
"z c #FA6265",
"x c #FA6366",
"c c #FA6467",
"v c #FF6263",
"b c #FF6768",
"n c #F9686A",
"m c #FB696C",
"M c #FA6A6D",
"N c #FA6C6E",
"B c #FB6D6F",
"V c #FC6B6E",
"C c #FF6C6E",
"Z c #FB6D70",
"A c #FF6E70",
"S c #FF7071",
"D c #FF7072",
"F c #FF7073",
"G c #FD7174",
"H c #FC7376",
"J c #FE7174",
"K c #FF7174",
"L c #FF7274",
"P c #FD7477",
"I c #FF7476",
"U c #FE7679",
"Y c #FF7679",
"T c #FF7779",
"R c #FF777A",
"E c #FF797B",
"W c #FD797C",
"Q c #FF797C",
"! c #FF797D",
"~ c #FE7A7D",
"^ c #FF7A7D",
"/ c #FF7B7E",
"( c #FF7C7E",
") c #FE7E81",
"_ c #FF7E80",
"` c #FF7E81",
"' c #FF8286",
"] c #FF878A",
"[ c gray100",
"{ c None",
/* pixels */
"{{{{{{{{{{{{{{{{",
"{{{{{{{{{{{{{{{{",
"{{{RR{{{{{{jn{{{",
"{{R``J{{{{dN(d{{",
"{{J~]~M{{fM~d:{{",
"{{{VJ'JkfMEd:{{{",
"{{{{lZ`~ERy;{{{{",
"{{{{{r~apJ-{{{{{",
"{{{{{yRiuF:{{{{{",
"{{{{rlJFAC6@{{{{",
"{{{0kJ0*@4b4+{{{",
"{{wkF9*{{O>v2X{{",
"{{8h8${{{{.&3o{{",
"{{{1${{{{{{ o{{{",
"{{{{{{{{{{{{{{{{",
"{{{{{{{{{{{{{{{{"
};
